<?xml version="1.0" encoding="UTF-8"?>
<svg id="Layer_1" data-name="Layer 1" xmlns="http://www.w3.org/2000/svg" viewBox="0 0 1000 1000">
  <defs>
    <style>
      .cls-1 {
        fill: #f9be22;
      }

      .cls-1, .cls-2, .cls-3, .cls-4 {
        stroke-width: 0px;
      }

      .cls-2 {
        fill: #101827;
      }

      .cls-3 {
        fill: #fff;
      }

      .cls-5 {
        font-family: Montserrat-Bold, Montserrat;
        font-size: 37.31px;
        font-weight: 700;
      }

      .cls-5, .cls-4 {
        fill: #231f20;
      }
    </style>
  </defs>
  <g>
    <ellipse class="cls-3" cx="500.9" cy="435.72" rx="413.45" ry="414.52"/>
    <ellipse class="cls-2" cx="500.9" cy="435.72" rx="361.77" ry="362.71"/>
    <ellipse class="cls-1" cx="500.9" cy="426.7" rx="310.09" ry="310.89"/>
    <ellipse class="cls-2" cx="500.9" cy="435.72" rx="248.07" ry="248.71"/>
    <path class="cls-1" d="m528.94,348.9v204.57h-56.1v-204.57h-71.2v-48.97h198.5v48.97h-71.2Z"/>
  </g>
  <g>
    <path class="cls-4" d="m385.3,874.77c-3.54,0-6.52-.46-8.96-1.39s-4.27-2.3-5.51-4.13c-1.24-1.82-1.86-4.09-1.86-6.81,0-.8.05-1.63.15-2.51.1-.88.22-1.72.37-2.54s.29-1.53.42-2.16c.13-.63.23-1.09.3-1.39l6.45,1.24c-.1.53-.23,1.21-.4,2.04-.17.83-.31,1.7-.45,2.61-.13.91-.2,1.78-.2,2.61,0,1.29.21,2.37.62,3.23.41.86,1.03,1.55,1.86,2.06.83.51,1.87.87,3.13,1.07,1.26.2,2.73.3,4.42.3h17.12l-3.87,3.23v-32.63h6.65v35.17h-20.24Zm-4.07-18.36v-3.63h12.01v3.63h-12.01Zm3.03-.4c-.63-.76-1.11-1.49-1.44-2.19-.33-.7-.5-1.44-.5-2.24,0-1.13.3-2.15.89-3.06.6-.91,1.37-1.62,2.33-2.14.96-.51,2.02-.77,3.18-.77.63,0,1.27.08,1.94.25.66.17,1.22.42,1.69.75l-1.69,3.03c-.3-.17-.59-.27-.87-.32-.28-.05-.57-.08-.87-.08-.79,0-1.41.21-1.84.62-.43.42-.65.97-.65,1.67,0,.4.08.78.25,1.14.17.37.41.76.74,1.19l-3.18,2.14Zm21.28,18.75v-5.77h5.21v5.77h-5.21Zm5.21,0v-5.77c.2,0,.35.07.47.2.12.13.21.33.3.6.08.27.14.57.17.92.03.35.05.74.05,1.17s-.02.83-.05,1.19c-.03.37-.09.67-.17.92-.08.25-.18.44-.3.57-.12.13-.27.2-.47.2Z"/>
    <path class="cls-4" d="m410.75,874.77c-.2,0-.35-.07-.47-.2-.12-.13-.21-.32-.3-.57-.08-.25-.14-.55-.17-.92-.03-.36-.05-.76-.05-1.19,0-.6.03-1.1.1-1.52.07-.41.17-.75.32-1,.15-.25.34-.37.57-.37v5.77Zm0,0v-5.77h9.08l-3.87,3.23v-22.43h6.65v24.97h-11.86Zm5.21-29.55v-5.67h6.65v5.67h-6.65Zm6.65,29.55v-5.77h5.21v5.77h-5.21Zm5.21,0v-5.77c.2,0,.36.07.5.2.13.13.23.33.3.6.07.27.12.57.15.92.03.35.05.74.05,1.17s-.02.83-.05,1.19c-.03.37-.08.67-.15.92-.07.25-.17.44-.3.57s-.3.2-.5.2Z"/>
    <path class="cls-4" d="m427.82,874.77c-.2,0-.35-.07-.47-.2-.12-.13-.21-.32-.3-.57-.08-.25-.14-.55-.17-.92-.03-.36-.05-.76-.05-1.19,0-.6.03-1.1.1-1.52.07-.41.17-.75.32-1,.15-.25.34-.37.57-.37v5.77Zm0,0v-5.77h11.76l-3.87,3.23v-22.43h6.6v24.97h-14.49Zm1.79,10.6v-5.67h6.4v5.67h-6.4Zm9.03,0v-5.67h6.4v5.67h-6.4Zm3.67-10.6v-5.77h6.2v5.77h-6.2Zm6.2,0v-5.77c.17,0,.31.07.45.2.13.13.23.33.3.6.07.27.12.57.17.92.05.35.07.74.07,1.17s-.02.83-.07,1.19c-.05.37-.11.67-.17.92-.07.25-.16.44-.27.57-.12.13-.27.2-.47.2Z"/>
    <path class="cls-4" d="m448.51,874.77c-.2,0-.35-.07-.47-.2-.12-.13-.21-.32-.3-.57-.08-.25-.14-.55-.17-.92-.03-.36-.05-.76-.05-1.19,0-.6.03-1.1.1-1.52.07-.41.17-.75.32-1,.15-.25.34-.37.57-.37v5.77Zm0,0v-5.77h5.61v5.77h-5.61Zm5.61,0v-35.17h6.65v35.17h-6.65Z"/>
    <path class="cls-4" d="m493.36,874.77c-3.54,0-6.52-.46-8.96-1.39s-4.27-2.3-5.51-4.13c-1.24-1.82-1.86-4.09-1.86-6.81,0-.8.05-1.63.15-2.51.1-.88.22-1.72.37-2.54s.29-1.53.42-2.16c.13-.63.23-1.09.3-1.39l6.45,1.24c-.1.53-.23,1.21-.4,2.04-.17.83-.31,1.7-.45,2.61-.13.91-.2,1.78-.2,2.61,0,1.29.21,2.37.62,3.23.41.86,1.03,1.55,1.86,2.06.83.51,1.87.87,3.13,1.07,1.26.2,2.73.3,4.42.3h13.25v-19.2h6.65v24.97h-20.24Zm-.99,10.6v-5.67h6.65v5.67h-6.65Z"/>
    <path class="cls-4" d="m521.1,874.77v-35.17h6.6v35.17h-6.6Zm6.6,0v-5.77h5.66v5.77h-5.66Zm5.66,0v-5.77c.2,0,.36.07.47.2.12.13.21.33.3.6.08.27.14.57.17.92.03.35.05.74.05,1.17s-.02.83-.05,1.19c-.03.37-.09.67-.17.92-.08.25-.18.44-.3.57-.12.13-.27.2-.47.2Z"/>
    <path class="cls-4" d="m533.35,874.77c-.2,0-.36-.07-.47-.2-.12-.13-.21-.32-.3-.57-.08-.25-.14-.55-.17-.92-.03-.36-.05-.76-.05-1.19,0-.6.03-1.1.1-1.52.07-.41.17-.75.32-1,.15-.25.34-.37.57-.37v5.77Zm0,0v-5.77h11.76l-3.87,3.23v-22.43h6.6v24.97h-14.49Zm3.52-29.55v-5.67h6.4v5.67h-6.4Zm9.03,0v-5.67h6.4v5.67h-6.4Z"/>
    <path class="cls-4" d="m564.16,887.11c-.43,0-.89-.02-1.39-.05s-1.01-.08-1.54-.15l.25-5.67c.53.03,1.03.07,1.51.1.48.03.83.05,1.07.05,1.29,0,2.32-.51,3.1-1.54.78-1.03,1.17-2.47,1.17-4.33v-25.72h6.65v25.72c0,2.25-.46,4.26-1.36,6.02-.91,1.76-2.18,3.13-3.8,4.1-1.62.98-3.51,1.47-5.66,1.47Zm9.62-12.34v-5.77h6.4v5.77h-6.4Zm6.4,0v-5.77c.2,0,.36.07.47.2.12.13.21.33.3.6.08.27.14.57.17.92.03.35.05.74.05,1.17s-.02.83-.05,1.19c-.03.37-.09.67-.17.92-.08.25-.18.44-.3.57-.12.13-.27.2-.47.2Z"/>
    <path class="cls-4" d="m580.19,874.77c-.2,0-.36-.07-.47-.2-.12-.13-.21-.32-.3-.57-.08-.25-.14-.55-.17-.92-.03-.36-.05-.76-.05-1.19,0-.6.03-1.1.1-1.52.07-.41.17-.75.32-1,.15-.25.34-.37.57-.37v5.77Zm0,0v-5.77h21.33l-2.23,1.84v-9.2c0-1.99-.62-3.5-1.86-4.53-1.24-1.03-3.2-1.54-5.88-1.54-.76,0-1.8.06-3.12.17-1.32.12-2.76.29-4.32.52l-.65-5.27c1.42-.33,2.87-.61,4.34-.85,1.47-.23,2.92-.35,4.34-.35,2.71,0,5.09.47,7.14,1.42,2.05.95,3.66,2.3,4.84,4.05s1.76,3.88,1.76,6.37v13.13h-25.7Zm9.58,10.6v-5.67h6.65v5.67h-6.65Zm16.12-10.6v-5.77h5.26v5.77h-5.26Zm5.26,0v-5.77c.17,0,.31.07.45.2.13.13.23.33.3.6.07.27.12.57.17.92.05.35.07.74.07,1.17s-.02.83-.07,1.19c-.05.37-.11.67-.17.92-.07.25-.17.44-.3.57-.13.13-.28.2-.45.2Z"/>
    <path class="cls-4" d="m611.15,874.77c-.2,0-.36-.07-.47-.2-.12-.13-.21-.32-.3-.57-.08-.25-.14-.55-.17-.92-.03-.36-.05-.76-.05-1.19,0-.6.03-1.1.1-1.52.07-.41.17-.75.32-1,.15-.25.34-.37.57-.37v5.77Zm0,0v-5.77h11.76l-3.87,3.23v-22.43h6.6v24.97h-14.49Zm3.52-29.55v-5.67h6.4v5.67h-6.4Zm9.03,0v-5.67h6.4v5.67h-6.4Zm1.93,29.55v-5.77h6.2v5.77h-6.2Zm6.2,0v-5.77c.17,0,.31.07.45.2.13.13.23.33.3.6.07.27.12.57.17.92.05.35.08.74.08,1.17s-.03.83-.08,1.19c-.05.37-.11.67-.17.92-.07.25-.16.44-.27.57-.12.13-.27.2-.47.2Z"/>
    <path class="cls-4" d="m631.83,874.77c-.2,0-.36-.07-.47-.2-.12-.13-.21-.32-.3-.57-.08-.25-.14-.55-.17-.92-.03-.36-.05-.76-.05-1.19,0-.6.03-1.1.1-1.52.07-.41.17-.75.32-1,.15-.25.34-.37.57-.37v5.77Zm0,0v-5.77h25.75l-3.03,2.59v-9.15c0-1.79-.2-3.19-.6-4.2-.4-1.01-1.08-1.72-2.06-2.14-.98-.41-2.32-.62-4.04-.62-1.36,0-2.69.09-3.99.27s-2.32.42-3.05.72l4.12-3.88c-.2.76-.39,1.72-.57,2.89s-.34,2.4-.47,3.71c-.13,1.31-.2,2.6-.2,3.86,0,1.16.06,2.37.17,3.63.12,1.26.25,2.37.4,3.33.15.96.27,1.62.37,1.99l-6.3,1.74c-.13-.46-.3-1.23-.5-2.29-.2-1.06-.37-2.32-.52-3.78-.15-1.46-.22-3-.22-4.63s.08-3.26.25-4.8c.17-1.54.36-2.94.57-4.18.21-1.24.42-2.25.62-3.01.79-.3,2.03-.6,3.72-.9,1.69-.3,3.55-.45,5.61-.45,2.98,0,5.45.42,7.42,1.24,1.97.83,3.44,2.17,4.42,4.03.97,1.86,1.46,4.36,1.46,7.51v12.29h-29.32Z"/>
  </g>
  <text class="cls-5" transform="translate(376.39 934.06)"><tspan x="0" y="0">TapLinksa.com</tspan></text>
</svg>